<svg width="17" height="16" viewBox="0 0 17 16" fill="none" xmlns="http://www.w3.org/2000/svg">
<path d="M14.6665 12L13.9998 12.7294C13.6461 13.1161 13.1666 13.3333 12.6666 13.3333C12.1666 13.3333 11.687 13.1161 11.3334 12.7294C10.9793 12.3434 10.4998 12.1267 9.99996 12.1267C9.50009 12.1267 9.02059 12.3434 8.66649 12.7294M2.6665 13.3333H3.78287C4.10899 13.3333 4.27205 13.3333 4.4255 13.2965C4.56155 13.2638 4.69161 13.21 4.8109 13.1368C4.94546 13.0544 5.06076 12.9391 5.29136 12.7085L13.6665 4.33333C14.2188 3.78104 14.2188 2.88561 13.6665 2.33333C13.1142 1.78104 12.2188 1.78104 11.6665 2.33333L3.29134 10.7085C3.06074 10.9391 2.94544 11.0544 2.86298 11.1889C2.78988 11.3082 2.73601 11.4383 2.70334 11.5744C2.6665 11.7278 2.6665 11.8909 2.6665 12.217V13.3333Z" stroke="#667085" stroke-width="1.2" stroke-linecap="round" stroke-linejoin="round"/>
</svg>
