<svg width="143" height="32" viewBox="0 0 143 32" fill="none" xmlns="http://www.w3.org/2000/svg">
<g clip-path="url(#clip0_13_2326)">
<rect width="32" height="32" rx="8" fill="white"/>
<rect width="32" height="32" rx="8" fill="url(#paint0_linear_13_2326)"/>
<path fill-rule="evenodd" clip-rule="evenodd" d="M15.9998 2.03884C8.28923 2.03884 2.03861 8.28946 2.03861 16C2.03861 23.7105 8.28923 29.9612 15.9998 29.9612C23.7103 29.9612 29.9609 23.7105 29.9609 16C29.9609 8.28946 23.7103 2.03884 15.9998 2.03884ZM1.96094 16C1.96094 8.24657 8.24634 1.96117 15.9998 1.96117C23.7532 1.96117 30.0386 8.24657 30.0386 16C30.0386 23.7534 23.7532 30.0388 15.9998 30.0388C8.24634 30.0388 1.96094 23.7534 1.96094 16Z" fill="#D0D5DD"/>
<path fill-rule="evenodd" clip-rule="evenodd" d="M16 12.0779C13.8338 12.0779 12.0777 13.834 12.0777 16.0002C12.0777 18.1665 13.8338 19.9226 16 19.9226C18.1662 19.9226 19.9223 18.1665 19.9223 16.0002C19.9223 13.834 18.1662 12.0779 16 12.0779ZM12 16.0002C12 13.7911 13.7909 12.0002 16 12.0002C18.2091 12.0002 20 13.7911 20 16.0002C20 18.2094 18.2091 20.0002 16 20.0002C13.7909 20.0002 12 18.2094 12 16.0002Z" fill="#D0D5DD"/>
<path fill-rule="evenodd" clip-rule="evenodd" d="M16 13.3201C14.52 13.3201 13.3203 14.5198 13.3203 15.9997C13.3203 17.4796 14.52 18.6793 16 18.6793C17.4799 18.6793 18.6796 17.4796 18.6796 15.9997C18.6796 14.5198 17.4799 13.3201 16 13.3201ZM13.2427 15.9997C13.2427 14.4769 14.4772 13.2424 16 13.2424C17.5228 13.2424 18.7572 14.4769 18.7572 15.9997C18.7572 17.5225 17.5228 18.757 16 18.757C14.4772 18.757 13.2427 17.5225 13.2427 15.9997Z" fill="#D0D5DD"/>
<g filter="url(#filter0_dd_13_2326)">
<circle cx="16" cy="16" r="8" fill="url(#paint1_linear_13_2326)"/>
</g>
</g>
<rect x="0.1" y="0.1" width="31.8" height="31.8" rx="7.9" stroke="#D0D5DD" stroke-width="0.2"/>
<path d="M41.5303 23.3741V7.64H44.4132V23.3741H41.5303Z" fill="#101828"/>
<path d="M51.9556 23.64C48.9174 23.64 47.0324 21.2466 47.0324 17.4572C47.0324 13.6677 48.9618 11.2743 51.9556 11.2743C53.5966 11.2743 54.905 12.0057 55.5481 13.2245V7.64H58.3867V23.3741H55.7033L55.6368 21.6234C54.9715 22.8865 53.5966 23.64 51.9556 23.64ZM52.7983 21.3353C54.5502 21.3353 55.5481 19.9613 55.5481 17.4572C55.5481 14.9309 54.5724 13.5791 52.7983 13.5791C51.0685 13.5791 49.9819 15.0417 49.9819 17.4572C49.9819 19.8284 51.0907 21.3353 52.7983 21.3353Z" fill="#101828"/>
<path d="M66.5945 23.64C63.0463 23.64 60.7843 21.2023 60.7843 17.4572C60.7843 13.7342 63.0463 11.2743 66.528 11.2743C69.9209 11.2743 72.1608 13.6234 72.1608 17.6123V18.255H63.7338C63.8446 20.3381 64.9313 21.3796 66.6167 21.3796C67.8807 21.3796 68.7456 20.7813 69.0783 19.7397L71.9833 19.917C71.3402 22.2217 69.3222 23.64 66.5945 23.64ZM63.7338 16.3491H69.2113C69.0783 14.4212 68.036 13.5126 66.528 13.5126C64.9978 13.5126 63.9555 14.5098 63.7338 16.3491Z" fill="#101828"/>
<path d="M78.0113 23.64C75.5276 23.64 73.8865 22.4655 73.8865 20.4045C73.8865 18.3658 75.1506 17.2799 77.7452 16.7702L81.6704 15.9946C81.6704 14.3325 80.8942 13.4683 79.4084 13.4683C78.0113 13.4683 77.2573 14.1109 76.9912 15.3076L74.0861 15.1746C74.5518 12.6926 76.459 11.2743 79.4084 11.2743C82.7792 11.2743 84.509 13.0472 84.509 16.194V20.4932C84.509 21.1358 84.7307 21.3131 85.1743 21.3131H85.5513V23.3741C85.3738 23.4184 84.9081 23.4627 84.5311 23.4627C83.2449 23.4627 82.2913 22.9973 82.0474 21.5569C81.4486 22.8201 79.9406 23.64 78.0113 23.64ZM78.5879 21.5791C80.4729 21.5791 81.6704 20.3824 81.6704 18.5874V17.9225L78.6101 18.543C77.346 18.7868 76.836 19.3187 76.836 20.1386C76.836 21.0694 77.4569 21.5791 78.5879 21.5791Z" fill="#101828"/>
<path d="M92.4405 23.3741L86.7411 7.64H89.7793L94.1924 20.1608L98.6055 7.64H101.621L95.9221 23.3741H92.4405Z" fill="#101828"/>
<path d="M105.948 23.64C103.464 23.64 101.823 22.4655 101.823 20.4045C101.823 18.3658 103.087 17.2799 105.682 16.7702L109.607 15.9946C109.607 14.3325 108.831 13.4683 107.345 13.4683C105.948 13.4683 105.194 14.1109 104.928 15.3076L102.023 15.1746C102.489 12.6926 104.396 11.2743 107.345 11.2743C110.716 11.2743 112.446 13.0472 112.446 16.194V20.4932C112.446 21.1358 112.668 21.3131 113.111 21.3131H113.488V23.3741C113.311 23.4184 112.845 23.4627 112.468 23.4627C111.182 23.4627 110.228 22.9973 109.984 21.5569C109.386 22.8201 107.878 23.64 105.948 23.64ZM106.525 21.5791C108.41 21.5791 109.607 20.3824 109.607 18.5874V17.9225L106.547 18.543C105.283 18.7868 104.773 19.3187 104.773 20.1386C104.773 21.0694 105.394 21.5791 106.525 21.5791Z" fill="#101828"/>
<path d="M119.45 23.64C117.033 23.64 115.547 21.978 115.547 19.1635V11.5403H118.386V18.4544C118.386 20.4489 119.029 21.3353 120.404 21.3353C121.934 21.3353 122.821 20.2937 122.821 18.3436V11.5403H125.66V23.3741H123.065L123.021 21.4461C122.4 22.8865 121.18 23.64 119.45 23.64Z" fill="#101828"/>
<path d="M131.618 23.3741C129.888 23.3741 128.779 22.5541 128.779 20.5818V7.64H131.618V20.2937C131.618 20.9142 131.928 21.1802 132.505 21.1802H133.37V23.3741H131.618Z" fill="#101828"/>
<path d="M139.502 23.3741C137.151 23.3741 136.065 22.3325 136.065 19.9835V13.7342H134.202V11.5403H136.065V8.77019H138.903V11.5403H142.03V13.7342H138.903V19.7176C138.903 20.8256 139.369 21.1802 140.367 21.1802H142.03V23.3741H139.502Z" fill="#101828"/>
<defs>
<filter id="filter0_dd_13_2326" x="5" y="6" width="22" height="22" filterUnits="userSpaceOnUse" color-interpolation-filters="sRGB">
<feFlood flood-opacity="0" result="BackgroundImageFix"/>
<feColorMatrix in="SourceAlpha" type="matrix" values="0 0 0 0 0 0 0 0 0 0 0 0 0 0 0 0 0 0 127 0" result="hardAlpha"/>
<feOffset dy="1"/>
<feGaussianBlur stdDeviation="1"/>
<feColorMatrix type="matrix" values="0 0 0 0 0.0627451 0 0 0 0 0.0941176 0 0 0 0 0.156863 0 0 0 0.06 0"/>
<feBlend mode="normal" in2="BackgroundImageFix" result="effect1_dropShadow_13_2326"/>
<feColorMatrix in="SourceAlpha" type="matrix" values="0 0 0 0 0 0 0 0 0 0 0 0 0 0 0 0 0 0 127 0" result="hardAlpha"/>
<feOffset dy="1"/>
<feGaussianBlur stdDeviation="1.5"/>
<feColorMatrix type="matrix" values="0 0 0 0 0.0627451 0 0 0 0 0.0941176 0 0 0 0 0.156863 0 0 0 0.1 0"/>
<feBlend mode="normal" in2="effect1_dropShadow_13_2326" result="effect2_dropShadow_13_2326"/>
<feBlend mode="normal" in="SourceGraphic" in2="effect2_dropShadow_13_2326" result="shape"/>
</filter>
<linearGradient id="paint0_linear_13_2326" x1="16" y1="0" x2="16" y2="32" gradientUnits="userSpaceOnUse">
<stop stop-color="white"/>
<stop offset="1" stop-color="#D0D5DD"/>
</linearGradient>
<linearGradient id="paint1_linear_13_2326" x1="12" y1="24" x2="20" y2="8" gradientUnits="userSpaceOnUse">
<stop stop-color="#7839EE"/>
<stop offset="1" stop-color="#5B13E1"/>
</linearGradient>
<clipPath id="clip0_13_2326">
<rect width="32" height="32" rx="8" fill="white"/>
</clipPath>
</defs>
</svg>
